<?xml version="1.0" encoding="iso-8859-1"?>
<!-- Generator: Adobe Illustrator 20.1.0, SVG Export Plug-In . SVG Version: 6.00 Build 0)  -->
<svg version="1.1" id="Layer_1" xmlns="http://www.w3.org/2000/svg" xmlns:xlink="http://www.w3.org/1999/xlink" x="0px" y="0px"
	 viewBox="0 0 40 40" style="enable-background:new 0 0 40 40;" xml:space="preserve">
<g>
	<circle style="fill:#5E9C76;" cx="6.5" cy="2" r="1"/>
</g>
<g>
	<rect x="2.5" y="8.5" style="fill:#F5CE85;" width="8" height="30"/>
	<g>
		<path style="fill:#967A44;" d="M10,9v29H3V9H10 M11,8H2v31h9V8L11,8z"/>
	</g>
</g>
<g>
	<path style="fill:#967A44;" d="M6.5,12L6.5,12C5.672,12,5,12.672,5,13.5V16h3v-2.5C8,12.672,7.328,12,6.5,12z"/>
</g>
<g>
	<path style="fill:#BAE0BD;" d="M6.5,9.5c-3.316,0-5-0.335-5-2.167c0-2.665,2.243-4.833,5-4.833s5,2.168,5,4.833
		C11.5,9.199,10.026,9.5,6.5,9.5z"/>
	<g>
		<path style="fill:#5E9C76;" d="M6.5,3C8.981,3,11,4.944,11,7.333C11,8.673,10.117,9,6.5,9C2.673,9,2,8.463,2,7.333
			C2,4.944,4.019,3,6.5,3 M6.5,2C3.462,2,1,4.388,1,7.333C1,9.772,3.462,10,6.5,10S12,9.902,12,7.333C12,4.388,9.538,2,6.5,2L6.5,2z
			"/>
	</g>
</g>
<g>
	<line style="fill:none;stroke:#967A44;stroke-miterlimit:10;" x1="2" y1="15.5" x2="11" y2="15.5"/>
</g>
<g>
	<line style="fill:none;stroke:#967A44;stroke-miterlimit:10;" x1="2" y1="23.5" x2="11" y2="23.5"/>
</g>
<g>
	<line style="fill:none;stroke:#967A44;stroke-miterlimit:10;" x1="2" y1="30.5" x2="11" y2="30.5"/>
</g>
<circle style="fill-rule:evenodd;clip-rule:evenodd;fill:#36404D;" cx="6.5" cy="19.5" r="1.5"/>
<g>
	<circle style="fill:#5E9C76;" cx="20.5" cy="2" r="1"/>
</g>
<g>
	<rect x="16.5" y="8.5" style="fill:#F5CE85;" width="8" height="30"/>
	<g>
		<path style="fill:#967A44;" d="M24,9v29h-7V9H24 M25,8h-9v31h9V8L25,8z"/>
	</g>
</g>
<g>
	<path style="fill:#967A44;" d="M20.5,12L20.5,12c-0.828,0-1.5,0.672-1.5,1.5V16h3v-2.5C22,12.672,21.328,12,20.5,12z"/>
</g>
<g>
	<path style="fill:#BAE0BD;" d="M20.5,9.5c-3.316,0-5-0.335-5-2.167c0-2.665,2.243-4.833,5-4.833s5,2.168,5,4.833
		C25.5,9.199,24.026,9.5,20.5,9.5z"/>
	<g>
		<path style="fill:#5E9C76;" d="M20.5,3C22.981,3,25,4.944,25,7.333C25,8.673,24.117,9,20.5,9C16.673,9,16,8.463,16,7.333
			C16,4.944,18.019,3,20.5,3 M20.5,2C17.462,2,15,4.388,15,7.333C15,9.772,17.462,10,20.5,10S26,9.902,26,7.333
			C26,4.388,23.538,2,20.5,2L20.5,2z"/>
	</g>
</g>
<g>
	<line style="fill:none;stroke:#967A44;stroke-miterlimit:10;" x1="16" y1="15.5" x2="25" y2="15.5"/>
</g>
<g>
	<line style="fill:none;stroke:#967A44;stroke-miterlimit:10;" x1="16" y1="23.5" x2="25" y2="23.5"/>
</g>
<g>
	<line style="fill:none;stroke:#967A44;stroke-miterlimit:10;" x1="16" y1="30.5" x2="25" y2="30.5"/>
</g>
<circle style="fill-rule:evenodd;clip-rule:evenodd;fill:#36404D;" cx="20.5" cy="19.5" r="1.5"/>
<g>
	<rect x="6.5" y="26.5" style="fill:#F5CE85;" width="32" height="12"/>
	<g>
		<path style="fill:#967A44;" d="M38,27v11H7V27H38 M39,26H6v13h33V26L39,26z"/>
	</g>
</g>
<g>
	<polygon style="fill:#F78F8F;" points="6.5,26.5 6.5,25.81 10.403,19.5 34.597,19.5 38.5,25.81 38.5,26.5 	"/>
	<g>
		<path style="fill:#C74343;" d="M34.318,20L38,25.951V26H7v-0.049L10.682,20H34.318 M34.875,19h-24.75L6,25.667V27h33v-1.333
			L34.875,19L34.875,19z"/>
	</g>
</g>
<g>
	<polygon style="fill:#967A44;" points="36,30.5 34.5,29 33,30.5 33,39 36,39 	"/>
</g>
<g>
	<polygon style="fill:#967A44;" points="30,30.5 28.5,29 27,30.5 27,39 30,39 	"/>
</g>
<g>
	<polygon style="fill:#967A44;" points="24,30.5 22.5,29 21,30.5 21,39 24,39 	"/>
</g>
<g>
	<polygon style="fill:#967A44;" points="18,30.5 16.5,29 15,30.5 15,39 18,39 	"/>
</g>
<g>
	<polygon style="fill:#967A44;" points="12,30.5 10.5,29 9,30.5 9,39 12,39 	"/>
</g>
</svg>
